<svg xmlns="http://www.w3.org/2000/svg" version="1.1" xmlns:xlink="http://www.w3.org/1999/xlink" xmlns:svgjs="http://svgjs.dev/svgjs" width="1000" height="1000" viewBox="0 0 1000 1000"><rect width="1000" height="1000" fill="#ffffff"></rect><g transform="matrix(0.7,0,0,0.7,150.12478312203098,114.61231188671286)"><svg viewBox="0 0 224 247" data-background-color="#ffffff" preserveAspectRatio="xMidYMid meet" height="1102" width="1000" xmlns="http://www.w3.org/2000/svg" xmlns:xlink="http://www.w3.org/1999/xlink"><defs></defs><g id="tight-bounds" transform="matrix(1,0,0,1,-0.03993059904991014,-0.09999916452554203)"><svg viewBox="0 0 224.07986119809985 247.2" height="247.2" width="224.07986119809985"><g><svg viewBox="0 0 397.4975999999999 438.510655061193" height="247.2" width="224.07986119809985"><g><rect width="397.4975999999999" height="9.279688551461215" x="0" y="245.1374925125895" fill="#31c48d" opacity="1" stroke-width="0" stroke="transparent" fill-opacity="1" class="rect-o-0" data-fill-palette-color="primary" rx="1%" id="o-0" data-palette-color="#31c48d"></rect></g><g transform="matrix(1,0,0,1,0.9887999999999693,278.70955947101726)"><svg viewBox="0 0 395.52 159.80109559017578" height="159.80109559017578" width="395.52"><g><svg viewBox="0 0 395.52 159.80109559017578" height="159.80109559017578" width="395.52"><g><svg viewBox="0 0 395.52 102.90066930550556" height="102.90066930550556" width="395.52"><g transform="matrix(1,0,0,1,0,0)"><svg width="395.52" viewBox="4.5 -35.400001525878906 138.94000244140625 36.150001525878906" height="102.90066930550556" data-palette-color="#31c48d"><path d="M7.9-2.95L24.2-2.95 24.2 0 4.5 0 4.5-34.65 7.9-34.65 7.9-2.95ZM58.05 0L54.3 0Q53.35-2.55 52.5-4.9 51.65-7.25 50.85-9.5L50.85-9.5 34-9.5Q33.15-7.25 32.3-4.9 31.45-2.55 30.55 0L30.55 0 27 0Q29-5.4 30.75-10.08 32.5-14.75 34.17-18.93 35.85-23.1 37.5-26.95 39.15-30.8 41-34.65L41-34.65 44-34.65Q45.85-30.8 47.5-26.95 49.15-23.1 50.82-18.93 52.5-14.75 54.25-10.08 56-5.4 58.05 0L58.05 0ZM42.4-30.75L42.4-30.75Q40.5-26.45 38.72-22 36.95-17.55 35.05-12.4L35.05-12.4 49.8-12.4Q47.9-17.55 46.1-22 44.3-26.45 42.4-30.75ZM86.15-24.25L86.15-24.25Q86.15-20.35 84.09-18.1 82.05-15.85 78.7-14.85L78.7-14.85Q79.5-13.85 80.77-12.15 82.05-10.45 83.4-8.43 84.75-6.4 86.05-4.2 87.34-2 88.25 0L88.25 0 84.59 0Q83.55-2 82.32-4 81.09-6 79.82-7.88 78.55-9.75 77.34-11.35 76.15-12.95 75.25-14.15L75.25-14.15Q73.65-14 72.05-14L72.05-14 66.45-14 66.45 0 63.05 0 63.05-34Q64.84-34.5 67.27-34.73 69.7-34.95 71.75-34.95L71.75-34.95Q78.9-34.95 82.52-32.25 86.15-29.55 86.15-24.25ZM72.15-32L72.15-32Q70.25-32 68.82-31.88 67.39-31.75 66.45-31.65L66.45-31.65 66.45-16.9 71.15-16.9Q73.5-16.9 75.59-17.13 77.7-17.35 79.25-18.13 80.8-18.9 81.7-20.35 82.59-21.8 82.59-24.3L82.59-24.3Q82.59-26.6 81.7-28.1 80.8-29.6 79.34-30.48 77.9-31.35 76.02-31.68 74.15-32 72.15-32ZM118.89 0L115.09 0Q113.39-2.6 111.27-5.15 109.14-7.7 106.79-9.95 104.44-12.2 102.02-14.05 99.59-15.9 97.34-17.15L97.34-17.15 97.34 0 93.94 0 93.94-34.65 97.34-34.65 97.34-18.5Q99.24-20.2 101.57-22.43 103.89-24.65 106.17-26.9 108.44-29.15 110.44-31.2 112.44-33.25 113.64-34.65L113.64-34.65 117.74-34.65Q116.29-33.1 114.24-30.98 112.19-28.85 109.89-26.6 107.59-24.35 105.32-22.18 103.04-20 101.24-18.35L101.24-18.35Q102.69-17.45 104.37-16.13 106.04-14.8 107.77-13.23 109.49-11.65 111.17-9.93 112.84-8.2 114.32-6.45 115.79-4.7 116.97-3.05 118.14-1.4 118.89 0L118.89 0ZM131.34-2.2L131.34-2.2Q135.39-2.2 137.64-3.68 139.89-5.15 139.89-8.45L139.89-8.45Q139.89-10.35 139.17-11.63 138.44-12.9 137.24-13.78 136.04-14.65 134.49-15.28 132.94-15.9 131.24-16.6L131.24-16.6Q129.09-17.45 127.39-18.35 125.69-19.25 124.49-20.38 123.29-21.5 122.67-22.95 122.04-24.4 122.04-26.35L122.04-26.35Q122.04-30.8 124.99-33.1 127.94-35.4 133.19-35.4L133.19-35.4Q134.59-35.4 135.94-35.2 137.29-35 138.47-34.68 139.64-34.35 140.62-33.95 141.59-33.55 142.24-33.1L142.24-33.1 141.04-30.25Q139.59-31.25 137.52-31.85 135.44-32.45 133.04-32.45L133.04-32.45Q131.39-32.45 130.02-32.13 128.64-31.8 127.64-31.08 126.64-30.35 126.07-29.25 125.49-28.15 125.49-26.6L125.49-26.6Q125.49-25 126.09-23.9 126.69-22.8 127.77-22 128.84-21.2 130.29-20.55 131.74-19.9 133.44-19.2L133.44-19.2Q135.49-18.35 137.32-17.5 139.14-16.65 140.49-15.5 141.84-14.35 142.64-12.7 143.44-11.05 143.44-8.65L143.44-8.65Q143.44-3.95 140.17-1.6 136.89 0.75 131.29 0.75L131.29 0.75Q129.29 0.75 127.64 0.5 125.99 0.25 124.69-0.13 123.39-0.5 122.49-0.9 121.59-1.3 121.09-1.6L121.09-1.6 122.19-4.55Q122.69-4.25 123.54-3.85 124.39-3.45 125.54-3.08 126.69-2.7 128.14-2.45 129.59-2.2 131.34-2.2Z" opacity="1" transform="matrix(1,0,0,1,0,0)" fill="#31c48d" class="undefined-text-0" data-fill-palette-color="primary" id="text-0"></path></svg></g></svg></g><g transform="matrix(1,0,0,1,0,127.1930477124721)"><svg viewBox="0 0 395.52 32.60804787770369" height="32.60804787770369" width="395.52"><g transform="matrix(1,0,0,1,0,0)"><svg width="395.52" viewBox="0 -35.38999938964844 434.739990234375 35.85068893432617" height="32.60804787770369" data-palette-color="#31c48d"><path d="M13.3-24.37L9.38-14.05 20.12-14.05 16.25-24.37Q15.47-26.49 14.71-29.17L14.71-29.17Q14.26-27.1 13.3-24.37L13.3-24.37ZM16.41-33.39L29.47 0 25.48 0 21.33-10.57 8.01-10.57 3.92 0 0 0 13.14-33.39 16.41-33.39ZM37.91-33.27L37.91 0 34.05 0 34.05-33.27 37.91-33.27ZM95.47-16.25L95.47 0 91.7 0 91.7-16.23Q91.7-22.17 86.47-22.17L86.47-22.17Q82.93-22.17 81.25-20.15 79.57-18.12 79.57-13.93L79.57-13.93 79.57 0 75.8 0 75.8-16.23Q75.8-19.24 74.51-20.7 73.22-22.17 70.54-22.17L70.54-22.17Q66.95-22.17 65.32-20.03 63.69-17.9 63.69-13.07L63.69-13.07 63.69 0 59.9 0 59.9-24.92 62.99-24.92 63.59-21.51 63.77-21.51Q64.86-23.33 66.8-24.36 68.75-25.38 71.15-25.38L71.15-25.38Q76.99-25.38 78.78-21.16L78.78-21.16 78.99-21.16Q80.12-23.13 82.23-24.25 84.35-25.38 87.02-25.38L87.02-25.38Q91.32-25.38 93.39-23.18 95.47-20.98 95.47-16.25L95.47-16.25ZM113.77 0.46L113.77 0.46Q108.23 0.46 105.02-2.91L105.02-2.91Q101.84-6.27 101.84-12.29 101.84-18.3 104.79-21.84L104.79-21.84Q107.8-25.38 112.64-25.38 117.48-25.38 120.21-22.3 122.94-19.21 122.94-14.18L122.94-14.18 122.94-11.78 105.75-11.78Q105.88-7.41 107.98-5.12 110.08-2.83 114.03-2.83 117.99-2.83 121.86-4.52L121.86-4.52 121.86-1.16Q119.91-0.3 118.09 0.08 116.27 0.46 113.77 0.46ZM105.85-14.86L118.9-14.86Q118.9-18.43 117.31-20.32 115.71-22.22 112.74-22.22 109.77-22.22 107.97-20.27 106.16-18.33 105.85-14.86L105.85-14.86ZM133.66-19.65Q131.89-17.09 131.89-12.34 131.89-7.58 133.65-5.14 135.4-2.7 138.79-2.7L138.79-2.7Q142.66-2.7 144.4-4.82 146.15-6.93 146.15-11.6L146.15-11.6 146.15-12.39Q146.15-17.72 144.38-19.97 142.61-22.22 138.74-22.22L138.74-22.22Q135.43-22.22 133.66-19.65ZM146.15-3.34Q143.52 0.46 138.47 0.46 133.43 0.46 130.7-2.88L130.7-2.88Q127.97-6.27 127.97-12.41 127.97-18.55 130.7-21.97 133.43-25.38 138.42-25.38 143.42-25.38 146.09-21.71L146.09-21.71 146.4-21.71 146.22-23.51 146.15-25.25 146.15-35.39 149.91-35.39 149.91 0 146.85 0 146.35-3.34 146.15-3.34ZM161.41-29.82Q160.78-29.17 159.79-29.17 158.81-29.17 158.2-29.82 157.59-30.46 157.59-31.7 157.59-32.94 158.2-33.57 158.81-34.2 159.79-34.2 160.78-34.2 161.41-33.56 162.04-32.91 162.04-31.69 162.04-30.46 161.41-29.82ZM157.9-24.92L161.69-24.92 161.69 0 157.9 0 157.9-24.92ZM179.66 0.46L179.66 0.46Q174.22 0.46 171.24-2.88L171.24-2.88Q168.28-6.22 168.28-12.37 168.28-18.53 171.29-21.97L171.29-21.97Q174.33-25.38 179.89-25.38L179.89-25.38Q181.71-25.38 183.5-25 185.3-24.62 186.31-24.09L186.31-24.09 185.14-20.88Q182.34-22.04 179.81-22.04L179.81-22.04Q172.2-22.04 172.2-12.36L172.2-12.36Q172.2-7.74 174.07-5.28 175.94-2.83 179.56-2.83L179.56-2.83Q182.64-2.83 185.95-4.2L185.95-4.2 185.95-0.83Q183.45 0.46 179.66 0.46ZM193.94-6.85L193.94-6.85Q193.94-4.83 195.18-3.74 196.42-2.65 198.64-2.65L198.64-2.65Q202.2-2.65 204.2-4.59 206.2-6.52 206.2-10.01L206.2-10.01 206.2-12.26 202.43-12.11Q197.93-11.93 195.94-10.69 193.94-9.45 193.94-6.85ZM209.99-17.01L209.99 0 207.18 0 206.43-3.54 206.25-3.54Q204.38-1.21 202.53-0.38 200.69 0.46 197.91 0.46L197.91 0.46Q194.17 0.46 192.08-1.47 190-3.39 190-6.9L190-6.9Q190-14.43 202.05-14.81L202.05-14.81 206.3-14.94 206.3-16.48Q206.3-19.46 205.04-20.84 203.77-22.22 200.83-22.22 197.88-22.22 193.94-20.32L193.94-20.32 192.78-23.21Q196.72-25.35 201.22-25.35 205.72-25.35 207.85-23.36 209.99-21.36 209.99-17.01L209.99-17.01ZM217.75-35.39L221.54-35.39 221.54 0 217.75 0 217.75-35.39ZM259.07-6.8L259.07-6.8Q259.07-3.31 256.48-1.43 253.89 0.46 249.06 0.46 244.23 0.46 241.45-1.11L241.45-1.11 241.45-4.63Q245.35-2.65 249.29-2.65L249.29-2.65Q255.43-2.65 255.43-6.47L255.43-6.47Q255.43-7.94 254.14-8.99 252.85-10.04 249.34-11.36 245.83-12.69 244.28-13.68L244.28-13.68Q241.38-15.65 241.38-18.76 241.38-21.87 243.86-23.62 246.33-25.38 250.54-25.38 254.75-25.38 258.54-23.76L258.54-23.76 257.2-20.68Q253.49-22.22 250.62-22.22 247.75-22.22 246.37-21.4 244.99-20.58 244.99-19.06L244.99-19.06Q244.99-18.1 245.49-17.38 245.98-16.66 247.12-16.01 248.25-15.37 251.51-14.18L251.51-14.18Q255.96-12.54 257.52-10.91 259.07-9.28 259.07-6.8ZM266.87-21.99Q269.94-25.38 275.25-25.38 280.56-25.38 283.64-21.9 286.72-18.43 286.72-12.42 286.72-6.42 283.64-2.96L283.64-2.96Q280.56 0.46 275.17 0.46L275.17 0.46Q270.09 0.51 266.91-3.06 263.72-6.62 263.8-12.49L263.8-12.49Q263.8-18.6 266.87-21.99ZM275.2-22.17L275.2-22.17Q267.72-22.17 267.72-12.49L267.72-12.49Q267.72-7.71 269.62-5.21 271.53-2.7 275.25-2.7 278.96-2.7 280.89-5.19 282.81-7.68 282.81-12.47 282.81-17.26 280.89-19.72 278.96-22.17 275.2-22.17ZM293.32-35.39L297.11-35.39 297.11 0 293.32 0 293.32-35.39ZM304.84-8.62L304.84-24.92 308.66-24.92 308.66-8.75Q308.66-5.69 310.06-4.2 311.47-2.7 314.4-2.7L314.4-2.7Q318.32-2.7 320.11-4.85 321.91-7 321.91-11.83L321.91-11.83 321.91-24.92 325.7-24.92 325.7 0 322.59 0 322.03-3.34 321.83-3.34Q320.67-1.52 318.62-0.53 316.57 0.46 313.92 0.46L313.92 0.46Q309.32 0.46 307.08-1.73 304.84-3.92 304.84-8.62L304.84-8.62ZM337.75-21.99L337.75-7.33Q337.75-5.08 338.8-3.87 339.85-2.65 341.68-2.65 343.52-2.65 345.16-3.11L345.16-3.11 345.16-0.23Q344.58 0.05 343.33 0.25 342.08 0.46 341.19 0.46L341.19 0.46Q333.96 0.46 333.96-7.15L333.96-7.15 333.96-21.99 330.4-21.99 330.4-23.81 333.96-25.38 335.55-30.71 337.75-30.71 337.75-24.92 344.98-24.92 344.98-21.99 337.75-21.99ZM353.65-29.82Q353.02-29.17 352.03-29.17 351.05-29.17 350.44-29.82 349.83-30.46 349.83-31.7 349.83-32.94 350.44-33.57 351.05-34.2 352.03-34.2 353.02-34.2 353.65-33.56 354.28-32.91 354.28-31.69 354.28-30.46 353.65-29.82ZM350.14-24.92L353.93-24.92 353.93 0 350.14 0 350.14-24.92ZM363.6-21.99Q366.67-25.38 371.97-25.38 377.28-25.38 380.37-21.9 383.45-18.43 383.45-12.42 383.45-6.42 380.37-2.96L380.37-2.96Q377.28 0.46 371.9 0.46L371.9 0.46Q366.82 0.51 363.63-3.06 360.45-6.62 360.52-12.49L360.52-12.49Q360.52-18.6 363.6-21.99ZM371.92-22.17L371.92-22.17Q364.44-22.17 364.44-12.49L364.44-12.49Q364.44-7.71 366.35-5.21 368.26-2.7 371.97-2.7 375.69-2.7 377.61-5.19 379.53-7.68 379.53-12.47 379.53-17.26 377.61-19.72 375.69-22.17 371.92-22.17ZM410.9-16.25L410.9 0 407.11 0 407.11-16.13Q407.11-19.21 405.72-20.69 404.33-22.17 401.4-22.17L401.4-22.17Q397.48-22.17 395.66-20.06 393.84-17.95 393.84-13.07L393.84-13.07 393.84 0 390.05 0 390.05-24.92 393.13-24.92 393.74-21.51 393.91-21.51Q395.08-23.33 397.17-24.36 399.27-25.38 401.85-25.38L401.85-25.38Q406.4-25.38 408.65-23.18 410.9-20.98 410.9-16.25L410.9-16.25ZM434.74-6.8L434.74-6.8Q434.74-3.31 432.14-1.43 429.55 0.46 424.72 0.46 419.9 0.46 417.12-1.11L417.12-1.11 417.12-4.63Q421.01-2.65 424.95-2.65L424.95-2.65Q431.1-2.65 431.1-6.47L431.1-6.47Q431.1-7.94 429.81-8.99 428.52-10.04 425-11.36 421.49-12.69 419.95-13.68L419.95-13.68Q417.04-15.65 417.04-18.76 417.04-21.87 419.52-23.62 421.99-25.38 426.2-25.38 430.41-25.38 434.2-23.76L434.2-23.76 432.86-20.68Q429.15-22.22 426.28-22.22 423.41-22.22 422.03-21.4 420.66-20.58 420.66-19.06L420.66-19.06Q420.66-18.1 421.15-17.38 421.64-16.66 422.78-16.01 423.92-15.37 427.18-14.18L427.18-14.18Q431.63-12.54 433.18-10.91 434.74-9.28 434.74-6.8Z" opacity="1" transform="matrix(1,0,0,1,0,0)" fill="#31c48d" class="undefined-text-1" data-fill-palette-color="secondary" id="text-1"></path></svg></g></svg></g></svg></g></svg></g><g transform="matrix(1,0,0,1,88.32624294718848,0)"><svg viewBox="0 0 220.84511410562297 220.84511410562297" height="220.84511410562297" width="220.84511410562297"><g><svg xmlns="http://www.w3.org/2000/svg" xmlns:xlink="http://www.w3.org/1999/xlink" version="1.1" x="0" y="0" viewBox="28.200000762939453 28.200000762939453 43.60000228881836 43.60000228881836" enable-background="new 0 0 100 100" xml:space="preserve" height="220.84511410562297" width="220.84511410562297" class="icon-icon-0" data-fill-palette-color="accent" id="icon-0"><g fill="#31c48d" data-fill-palette-color="accent"><g fill="#31c48d" data-fill-palette-color="accent"><path fill="#31c48d" d="M65 71.8H35c-3.8 0-6.8-3.1-6.8-6.8V35c0-3.8 3.1-6.8 6.8-6.8h30c3.8 0 6.8 3.1 6.8 6.8v30C71.8 68.8 68.8 71.8 65 71.8zM35 30.2c-2.7 0-4.8 2.2-4.8 4.8v30c0 2.7 2.2 4.8 4.8 4.8h30c2.7 0 4.8-2.2 4.8-4.8V35c0-2.7-2.2-4.8-4.8-4.8H35z" data-fill-palette-color="accent"></path></g><g fill="#31c48d" data-fill-palette-color="accent"><path fill="#31c48d" d="M53.2 63.4h-6.5c-1.1 0-2-0.9-2-2v-6.1h-6.1c-1.1 0-2-0.9-2-2v-6.5c0-1.1 0.9-2 2-2h6.1v-6.1c0-1.1 0.9-2 2-2h6.5c1.1 0 2 0.9 2 2v6.1h6.1c1.1 0 2 0.9 2 2v6.5c0 1.1-0.9 2-2 2h-6.1v6.1C55.2 62.5 54.3 63.4 53.2 63.4zM53.2 61.4v1V61.4L53.2 61.4 53.2 61.4zM38.6 46.8v6.5h7.1c0.6 0 1 0.4 1 1v7.1h6.5l0-7.1c0-0.6 0.4-1 1-1h7.1v-6.5h-7.1c-0.6 0-1-0.4-1-1v-7.1h-6.5v7.1c0 0.6-0.4 1-1 1H38.6z" data-fill-palette-color="accent"></path></g></g></svg></g></svg></g><g></g></svg></g></svg><rect width="224.07986119809985" height="247.2" fill="none" stroke="none" visibility="hidden"></rect></g></svg></g></svg>